<svg width="20" height="18" viewBox="0 0 20 18" fill="none" xmlns="http://www.w3.org/2000/svg">
<path d="M19.6872 3.11612C19.4189 2.78416 19.0202 2.59381 18.5933 2.59381H3.34908L3.21295 1.61819C3.11654 0.927339 2.5178 0.406326 1.82018 0.406326H0.624996C0.279842 0.406326 0 0.686168 0 1.03132C0 1.37648 0.279842 1.65632 0.624996 1.65632H1.82018C1.89768 1.65632 1.96425 1.71421 1.97491 1.79097L3.66197 13.8819C3.75838 14.5728 4.35712 15.0937 5.05474 15.0937H5.73243C5.66305 15.2894 5.62493 15.4996 5.62493 15.7187C5.62493 16.7526 6.46606 17.5937 7.49992 17.5937C8.53378 17.5937 9.37491 16.7526 9.37491 15.7187C9.37491 15.4996 9.33678 15.2894 9.26741 15.0937H12.6074C12.538 15.2894 12.4999 15.4996 12.4999 15.7187C12.4999 16.7526 13.341 17.5937 14.3749 17.5937C15.4087 17.5937 16.2499 16.7526 16.2499 15.7187C16.2499 15.4996 16.2117 15.2894 16.1424 15.0937H17.4999C17.8451 15.0937 18.1249 14.8139 18.1249 14.4687C18.1249 14.1236 17.8451 13.8437 17.4999 13.8437H5.05477C4.97728 13.8437 4.91071 13.7859 4.90005 13.7091L4.74443 12.5938H17.053C17.7115 12.5938 18.2899 12.1264 18.4282 11.4821L19.9684 4.29478C20.0579 3.87756 19.9554 3.44795 19.6872 3.11612ZM8.12495 15.7187C8.12495 16.0633 7.84456 16.3437 7.49996 16.3437C7.15535 16.3437 6.87496 16.0633 6.87496 15.7187C6.87496 15.3741 7.15535 15.0937 7.49996 15.0937C7.84456 15.0937 8.12495 15.3741 8.12495 15.7187ZM14.9999 15.7187C14.9999 16.0633 14.7195 16.3437 14.3749 16.3437C14.0303 16.3437 13.7499 16.0633 13.7499 15.7187C13.7499 15.3741 14.0303 15.0937 14.3749 15.0937C14.7195 15.0937 14.9999 15.3741 14.9999 15.7187ZM18.7462 4.03275L17.206 11.2199C17.1906 11.2917 17.1263 11.3437 17.053 11.3437H4.56997L3.52349 3.84377H18.5932C18.6551 3.84377 18.6936 3.87533 18.715 3.90181C18.7364 3.92826 18.7591 3.97244 18.7462 4.03275Z" fill="black"/>
</svg>
