<svg width="16" height="16" viewBox="0 0 16 16" fill="none" xmlns="http://www.w3.org/2000/svg">
<g clip-path="url(#clip0_996_33597)">
<path d="M3.88706 6.96875C3.59456 6.96875 3.34766 7.29094 3.34766 7.67188C3.34766 8.05313 3.59453 8.37531 3.88706 8.37531C4.17956 8.37531 4.42675 8.05313 4.42675 7.67188C4.42675 7.29094 4.17956 6.96875 3.88706 6.96875Z" fill="#4CAF50"/>
<path d="M8.61753 10.687C8.32503 10.687 8.07812 11.0092 8.07812 11.3904C8.07812 11.7714 8.325 12.0936 8.61753 12.0936C8.91003 12.0936 9.15725 11.7714 9.15725 11.3904C9.15725 11.0092 8.91003 10.687 8.61753 10.687Z" fill="#4CAF50"/>
<path d="M11.6828 4.99053C6.93025 0.617465 7.17334 0.784496 6.7955 0.637715C6.25853 0.424715 5.61959 0.53609 5.17825 0.94209L0.778469 4.99053C0.28375 5.44553 0 6.09303 0 6.7674V13.9365C0 14.7812 0.683781 15.4687 1.52409 15.4687H10.9369C11.7772 15.4687 12.461 14.7812 12.461 13.9365V6.7674C12.461 6.09303 12.1772 5.44553 11.6828 4.99053ZM5.77703 3.45365C5.80544 3.18122 6.05531 2.98775 6.33488 3.04022C6.60225 3.09596 6.75284 3.35253 6.703 3.59146C6.65003 3.84603 6.41056 4.00818 6.15175 3.95959C5.90456 3.90803 5.75369 3.68347 5.77703 3.45365ZM2.41038 7.67178C2.41038 6.76709 3.07291 6.03115 3.88731 6.03115C4.70203 6.03115 5.36453 6.76709 5.36453 7.67178C5.36453 8.57647 4.702 9.31272 3.88731 9.31272C3.07291 9.31272 2.41038 8.57647 2.41038 7.67178ZM5.09766 12.6612C4.76641 12.6612 4.53522 12.3215 4.66578 12.0108L6.94772 6.57209C7.04803 6.33334 7.32272 6.22084 7.56147 6.32115C7.80022 6.42115 7.91241 6.69615 7.81241 6.9349L5.53016 12.3737C5.45484 12.553 5.28109 12.6612 5.09766 12.6612ZM8.61744 13.0312C7.80303 13.0312 7.14053 12.2952 7.14053 11.3905C7.14053 10.4858 7.80306 9.74959 8.61744 9.74959C9.43184 9.74959 10.0947 10.4858 10.0947 11.3905C10.0947 12.2952 9.43184 13.0312 8.61744 13.0312Z" fill="#4CAF50"/>
<path d="M15.8821 10.1389C14.3559 5.69593 13.5081 3.22568 13.4961 3.19762C13.2308 2.58324 12.7151 2.10543 12.082 1.88699C12.0457 1.87465 12.26 1.92671 8.86035 1.12012L12.317 4.30074C13.0042 4.93262 13.3983 5.83168 13.3983 6.76762V12.8426L15.0846 12.1207C15.8474 11.7907 16.2021 10.9048 15.8821 10.1389Z" fill="#4CAF50"/>
</g>
<defs>
<clipPath id="clip0_996_33597">
<rect width="16" height="16" fill="white"/>
</clipPath>
</defs>
</svg>
