<svg width="44" height="44" viewBox="0 0 44 44" fill="none" xmlns="http://www.w3.org/2000/svg">
<g clip-path="url(#clip0_996_20378)">
<path d="M38.3266 43.0871L36.6078 15.5871C36.5902 15.3054 36.4354 15.0502 36.1937 14.9046L34.8635 14.103V8.76562C34.8635 8.29099 34.4786 7.90625 34.0041 7.90625H9.99616C9.52153 7.90625 9.13678 8.29099 9.13678 8.76562V14.3301L8.23152 14.921C8.00842 15.0666 7.86551 15.3074 7.84454 15.573L5.67453 43.073C5.65571 43.3119 5.73744 43.5479 5.90012 43.7239C6.0628 43.8999 6.29156 44 6.53124 44H37.4688C37.7061 44 37.9327 43.9019 38.0951 43.729C38.2576 43.5561 38.3414 43.3238 38.3266 43.0871ZM33.1446 13.0674L31.3774 12.0025L33.1446 10.5692V13.0674ZM32.6587 14.7813H30.7441V13.6276L32.6587 14.7813ZM31.5802 9.625L29.3435 11.4391C29.1423 11.6023 29.0255 11.8474 29.0255 12.1065V14.7813H14.9747V12.1065C14.9747 11.8475 14.8578 11.6023 14.6566 11.4391L12.4199 9.625H31.5802ZM13.2559 14.7813H11.59L13.2559 13.6938V14.7813ZM10.8555 10.5692L12.6583 12.0314L10.8555 13.2083V10.5692ZM7.46109 42.2812L7.59678 40.5624H11.8605C12.3351 40.5624 12.7199 40.1777 12.7199 39.703C12.7199 39.2284 12.3351 38.8437 11.8605 38.8437H7.73239L9.49549 16.5H34.9428L36.5541 42.2812H7.46109Z" fill="#959DA6"/>
<path d="M22 3.69531C22.4747 3.69531 22.8594 3.31057 22.8594 2.83594V0.859375C22.8594 0.384742 22.4746 0 22 0C21.5255 0 21.1407 0.384742 21.1407 0.859375V2.83594C21.1407 3.31057 21.5254 3.69531 22 3.69531Z" fill="#959DA6"/>
<path d="M16.7543 4.47168C16.9134 4.74736 17.2023 4.90154 17.4993 4.90154C17.645 4.90154 17.7928 4.86432 17.9282 4.78621C18.3392 4.54893 18.4801 4.02334 18.2427 3.6123L17.2544 1.9006C17.0172 1.48947 16.4915 1.34862 16.0805 1.58607C15.6695 1.82334 15.5286 2.34893 15.766 2.75997L16.7543 4.47168Z" fill="#959DA6"/>
<path d="M26.0719 4.78623C26.2073 4.86443 26.355 4.90156 26.5007 4.90156C26.7977 4.90156 27.0867 4.74738 27.2458 4.4717L28.2341 2.75999C28.4715 2.34895 28.3306 1.82336 27.9196 1.58609C27.5085 1.34856 26.9829 1.48958 26.7457 1.90062L25.7574 3.61232C25.5201 4.02327 25.6609 4.54895 26.0719 4.78623Z" fill="#959DA6"/>
<path d="M29.96 19.0781H26.5226C26.0481 19.0781 25.6632 19.4629 25.6632 19.9375C25.6632 20.4121 26.0481 20.7969 26.5226 20.7969H27.382V25.9531C27.382 28.7963 25.0689 31.1094 22.2256 31.1094C19.3825 31.1094 17.0694 28.7963 17.0694 25.9531V20.7969H17.9288C18.4034 20.7969 18.7881 20.4121 18.7881 19.9375C18.7881 19.4629 18.4034 19.0781 17.9288 19.0781H14.4913C14.0166 19.0781 13.6319 19.4629 13.6319 19.9375C13.6319 20.4121 14.0166 20.7969 14.4913 20.7969H15.3506V25.9531C15.3506 29.744 18.4348 32.8281 22.2256 32.8281C26.0165 32.8281 29.1007 29.744 29.1007 25.9531V20.7969H29.96C30.4346 20.7969 30.8194 20.4121 30.8194 19.9375C30.8194 19.4629 30.4346 19.0781 29.96 19.0781Z" fill="#959DA6"/>
<path d="M15.7273 38.8438C15.2527 38.8438 14.8679 39.2285 14.8679 39.7031C14.8679 40.1778 15.2527 40.5625 15.7273 40.5625H15.7279C16.2025 40.5625 16.587 40.1778 16.587 39.7031C16.587 39.2285 16.2019 38.8438 15.7273 38.8438Z" fill="#959DA6"/>
</g>
<defs>
<clipPath id="clip0_996_20378">
<rect width="44" height="44" fill="white"/>
</clipPath>
</defs>
</svg>
