<svg width="40" height="40" viewBox="0 0 40 40" fill="none" xmlns="http://www.w3.org/2000/svg">
<path d="M20.47 16.4058C20.9015 16.4058 21.2513 16.056 21.2513 15.6245C21.2513 15.193 20.9015 14.8433 20.47 14.8433H20.4695C20.038 14.8433 19.6885 15.193 19.6885 15.6245C19.6885 16.056 20.0386 16.4058 20.47 16.4058Z" fill="#959DA6"/>
<path d="M24.3763 16.4058C24.8078 16.4058 25.1575 16.056 25.1575 15.6245C25.1575 15.193 24.8078 14.8433 24.3763 14.8433H24.3757C23.9443 14.8433 23.5947 15.193 23.5947 15.6245C23.5947 16.056 23.9448 16.4058 24.3763 16.4058Z" fill="#959DA6"/>
<path d="M28.2816 16.4058C28.713 16.4058 29.0628 16.056 29.0628 15.6245C29.0628 15.193 28.713 14.8433 28.2816 14.8433H28.281C27.8495 14.8433 27.5 15.193 27.5 15.6245C27.5 16.056 27.8501 16.4058 28.2816 16.4058Z" fill="#959DA6"/>
<path d="M38.127 24.622C38.0372 24.3079 37.9001 24.0138 37.7244 23.7475C39.2148 21.3037 40 18.5067 40 15.6244C40 7.00909 32.9909 0 24.3756 0C20.2678 0 16.5251 1.59345 13.7333 4.19475C13.1451 3.63243 12.3532 3.30416 11.5214 3.30416C11.4259 3.30416 11.3307 3.30838 11.236 3.31682C10.3859 2.23053 9.06428 1.57431 7.67043 1.57431C5.43786 1.57431 3.57817 3.20104 3.21467 5.33166C1.90027 5.48728 0.877581 6.6084 0.877581 7.96389C0.877581 9.42547 2.06113 10.6146 3.51599 10.6146H9.57488C9.04092 12.1879 8.75124 13.8729 8.75124 15.6244C8.75124 18.8153 9.71277 21.7859 11.3613 24.2617L1.00617 34.1852C1.00219 34.1891 0.998201 34.193 0.994295 34.1969C-0.331432 35.5227 -0.331432 37.6799 0.994295 39.0057C1.65716 39.6685 2.5279 40 3.39865 40C4.2694 40 5.14014 39.6685 5.803 39.0057C5.80691 39.0018 5.81082 38.9978 5.81464 38.9938L15.7379 28.6384C18.2138 30.287 21.1845 31.2486 24.3756 31.2486C26.8268 31.2486 29.1707 30.6979 31.3455 29.6113H37.461C38.8609 29.6113 40 28.4723 40 27.0723C40 25.9027 39.205 24.9152 38.127 24.622ZM3.51607 9.05205C2.93281 9.05205 2.4401 8.55371 2.4401 7.96381C2.4401 7.36376 2.92828 6.87558 3.52833 6.87558H3.93152C4.36299 6.87558 4.71274 6.52583 4.71274 6.09436C4.71274 4.46349 6.03956 3.13667 7.67043 3.13667C8.71882 3.13667 9.66753 3.67407 10.2082 4.57434C10.3888 4.87503 10.7476 5.01854 11.0857 4.92519C11.2268 4.88628 11.3734 4.86652 11.5214 4.86652C11.943 4.86652 12.3446 5.03167 12.6446 5.31494C11.6623 6.43138 10.8365 7.68859 10.2017 9.05213H3.51607V9.05205ZM4.69289 37.9063C3.97589 38.6175 2.81391 38.6157 2.09917 37.9009C1.38436 37.1861 1.38256 36.0241 2.09378 35.3071L9.17208 28.5238L11.4761 30.8277L4.69289 37.9063ZM12.5572 29.6993L10.3003 27.4424L12.299 25.527C12.9508 26.3205 13.6791 27.0487 14.4725 27.7006L12.5572 29.6993ZM10.3138 15.6243C10.3138 7.87054 16.6219 1.56236 24.3757 1.56236C32.1294 1.56236 38.4376 7.87054 38.4376 15.6243C38.4376 18.1168 37.7856 20.5379 36.5453 22.6739C36.0979 22.4356 35.5892 22.3008 35.0531 22.3008C35.0165 22.3008 34.9799 22.3014 34.9435 22.3027C36.2093 20.3057 36.8752 18.0107 36.8752 15.6244C36.8752 8.73214 31.2679 3.12487 24.3757 3.12487C22.3501 3.12487 20.3373 3.62157 18.5548 4.5613C18.1732 4.76254 18.0269 5.23502 18.228 5.61672C18.4292 5.99835 18.9018 6.14459 19.2835 5.94351C20.8422 5.12159 22.603 4.68723 24.3756 4.68723C30.4063 4.68723 35.3127 9.59359 35.3127 15.6243C35.3127 17.6591 34.7596 19.6177 33.7069 21.3326C32.9741 20.8452 32.1033 20.571 31.2022 20.571C28.9696 20.571 27.1099 22.1978 26.7464 24.3284C25.5636 24.4684 24.6171 25.3903 24.4394 26.5613C24.419 26.5613 24.3978 26.5613 24.3757 26.5613C18.345 26.5613 13.4386 21.655 13.4386 15.6243C13.4386 13.8515 13.8729 12.0908 14.6945 10.5325C14.8958 10.1508 14.7495 9.67828 14.3678 9.47703C13.9862 9.27579 13.5136 9.42211 13.3124 9.80374C12.3728 11.5859 11.8761 13.5986 11.8761 15.6243C11.8761 22.5165 17.4833 28.1238 24.3756 28.1238C24.4909 28.1238 24.5864 28.1235 24.6764 28.1219C25.0184 28.8239 25.6603 29.3526 26.4334 29.5386C25.7584 29.6368 25.0718 29.6862 24.3757 29.6862C16.6219 29.6862 10.3138 23.378 10.3138 15.6243ZM37.4611 28.0488H27.0478C26.4645 28.0488 25.9718 27.5505 25.9718 26.9606C25.9718 26.3606 26.46 25.8724 27.06 25.8724H27.4632C27.8947 25.8724 28.2444 25.5226 28.2444 25.0912C28.2444 23.4603 29.5712 22.1335 31.2021 22.1335C32.2506 22.1335 33.1992 22.6709 33.7399 23.5711C33.9204 23.8718 34.2793 24.0153 34.6174 23.9219C34.7586 23.8829 34.9052 23.8632 35.0531 23.8632C35.9033 23.8632 36.6188 24.5263 36.682 25.3727C36.7124 25.7805 37.0521 26.0958 37.461 26.0958C37.9995 26.0958 38.4375 26.5338 38.4375 27.0723C38.4375 27.6108 37.9995 28.0488 37.4611 28.0488Z" fill="#959DA6"/>
<path d="M16.0891 8.11963C16.5206 8.11963 16.8704 7.76986 16.8704 7.33838C16.8704 6.90689 16.5206 6.55713 16.0891 6.55713H16.0886C15.6571 6.55713 15.3076 6.90689 15.3076 7.33838C15.3076 7.76986 15.6576 8.11963 16.0891 8.11963Z" fill="#959DA6"/>
</svg>
